<?xml version="1.0" standalone="no"?>
<!DOCTYPE svg PUBLIC "-//W3C//DTD SVG 20010904//EN"
 "http://www.w3.org/TR/2001/REC-SVG-20010904/DTD/svg10.dtd">
<svg version="1.0" xmlns="http://www.w3.org/2000/svg"
 width="1568.000000pt" height="1568.000000pt" viewBox="0 0 1568.000000 1568.000000"
 preserveAspectRatio="xMidYMid meet">
<metadata>
Created by potrace 1.14, written by Peter Selinger 2001-2017
</metadata>
<g transform="translate(0.000000,1568.000000) scale(0.100000,-0.100000)"
fill="#000000" stroke="none">
<path d="M7762 12098 c-96 -100 -150 -158 -203 -220 -24 -28 -52 -60 -61 -70
-10 -10 -18 -22 -18 -27 0 -5 -3 -11 -7 -13 -11 -4 -93 -104 -93 -112 0 -3 -8
-14 -17 -24 -10 -10 -25 -29 -33 -42 -8 -13 -23 -32 -32 -42 -10 -10 -15 -18
-10 -18 4 0 2 -4 -4 -8 -5 -4 -32 -41 -60 -82 -27 -41 -52 -76 -56 -78 -5 -2
-8 -8 -8 -14 0 -5 -10 -24 -22 -41 -13 -18 -28 -41 -34 -52 -7 -11 -42 -72
-78 -135 -90 -155 -286 -554 -286 -581 0 -5 -4 -17 -9 -27 -18 -33 -60 -132
-56 -132 2 0 -5 -21 -15 -46 -11 -25 -32 -80 -46 -122 -35 -106 -35 -107 -35
-109 0 -2 -6 -18 -15 -38 -8 -19 -14 -37 -14 -40 0 -3 -3 -10 -5 -17 -2 -7 -9
-31 -14 -53 -6 -22 -30 -114 -54 -205 -24 -91 -45 -169 -46 -175 -1 -5 -4 -19
-6 -30 -3 -11 -7 -33 -10 -50 -10 -54 -13 -70 -19 -95 -10 -47 -46 -265 -51
-310 -3 -25 -7 -61 -10 -80 -3 -19 -8 -60 -11 -90 -3 -30 -7 -68 -9 -85 -3
-27 -11 -130 -21 -280 -2 -27 -4 -162 -5 -300 -1 -231 2 -322 17 -510 3 -38 7
-92 9 -120 2 -27 5 -50 5 -50 2 0 8 -54 14 -115 2 -19 5 -37 6 -40 1 -3 2 -8
2 -11 -1 -7 15 -119 23 -164 3 -16 10 -57 16 -90 16 -94 16 -96 34 -175 8 -41
21 -100 26 -130 6 -30 14 -59 17 -65 4 -5 7 -18 8 -27 1 -10 2 -19 3 -20 2 -2
4 -12 6 -23 3 -11 21 -76 41 -145 20 -69 37 -129 38 -135 2 -5 6 -17 9 -25 5
-15 50 -150 52 -160 1 -3 4 -12 8 -20 3 -8 26 -71 52 -139 84 -224 240 -558
335 -716 19 -33 41 -71 48 -85 6 -14 32 -56 57 -95 25 -38 48 -77 52 -85 4 -8
9 -17 13 -20 3 -3 30 -41 60 -85 60 -91 57 -86 190 -258 130 -166 185 -228
342 -388 l66 -68 64 62 c100 100 273 291 306 339 9 13 19 25 22 28 11 9 140
180 140 186 0 5 11 19 38 49 6 7 12 18 12 23 0 6 3 12 8 14 12 5 186 275 205
318 4 8 18 33 31 55 14 22 37 64 51 92 15 29 30 55 36 58 5 4 9 15 9 26 0 10
5 19 10 19 6 0 10 4 10 9 0 4 29 69 63 142 74 156 81 171 79 182 -1 4 3 7 10
7 6 0 9 3 5 6 -3 4 2 23 13 44 11 21 16 40 13 44 -4 3 -1 6 5 6 7 0 12 5 12
12 0 7 20 64 44 128 42 112 106 297 110 323 1 6 10 37 19 67 38 123 88 320
102 400 3 17 12 63 21 103 9 39 17 81 19 92 2 11 6 38 9 60 4 22 11 63 16 90
5 28 12 73 15 100 16 142 22 182 30 195 3 5 1 10 -5 10 -6 0 -8 4 -5 10 3 5 8
29 10 52 2 24 6 72 10 108 16 177 23 637 11 790 -3 36 -8 108 -11 160 -8 128
-14 195 -15 195 -4 0 -9 46 -12 97 -2 32 -5 58 -8 58 -3 0 -5 10 -6 23 0 12
-4 47 -8 77 -5 30 -10 66 -12 80 -1 14 -5 36 -8 50 -5 23 -22 107 -31 155 -2
11 -6 37 -10 58 -3 21 -28 124 -55 230 -28 106 -52 203 -55 216 -2 14 -8 34
-13 45 -9 21 -112 323 -116 341 -1 6 -7 19 -13 30 -6 11 -12 25 -13 30 -4 16
-11 36 -37 100 -24 57 -31 73 -69 163 -9 20 -41 87 -70 149 -30 62 -54 117
-54 123 0 5 -3 10 -8 10 -4 0 -14 15 -21 32 -19 43 -144 259 -181 315 -17 24
-30 46 -30 49 0 3 -33 53 -72 111 -40 57 -77 112 -83 121 -5 9 -12 19 -15 22
-3 3 -31 39 -62 80 -32 41 -68 87 -80 102 -13 15 -33 40 -45 56 -12 16 -33 40
-45 53 -13 14 -42 48 -66 75 -61 69 -214 224 -222 224 -4 0 -39 -33 -78 -72z"/>
<path d="M5049 11762 c-6 -15 -17 -41 -25 -59 -9 -17 -17 -37 -18 -45 -2 -7
-9 -26 -16 -43 -7 -16 -14 -32 -15 -35 -1 -3 -7 -18 -13 -33 -7 -16 -12 -34
-12 -41 0 -7 -3 -16 -7 -20 -4 -3 -8 -12 -9 -19 -1 -7 -11 -39 -23 -72 -11
-33 -27 -85 -36 -115 -9 -30 -19 -62 -22 -70 -3 -8 -7 -24 -9 -35 -1 -11 -12
-56 -24 -100 -11 -44 -27 -111 -35 -150 -8 -38 -16 -79 -18 -90 -3 -11 -8 -40
-12 -65 -4 -25 -9 -54 -11 -65 -3 -11 -7 -38 -10 -60 -3 -22 -8 -51 -10 -65
-3 -14 -7 -45 -9 -70 -2 -25 -6 -58 -8 -75 -12 -67 -24 -228 -31 -413 l-4 -93
66 -32 c37 -18 69 -35 70 -39 2 -5 8 -8 13 -8 8 0 51 -23 189 -103 19 -11 55
-31 80 -45 25 -14 74 -44 110 -67 36 -23 70 -43 75 -45 6 -2 19 -12 29 -22 11
-10 24 -18 28 -18 5 0 18 -8 29 -18 10 -11 32 -25 47 -33 15 -8 29 -16 32 -19
3 -4 27 -22 55 -41 27 -18 71 -50 96 -69 26 -19 59 -44 74 -55 41 -30 189
-146 195 -154 3 -3 21 -18 42 -33 20 -15 44 -35 53 -44 25 -25 28 -18 39 76 3
25 8 56 10 70 3 14 8 41 10 60 6 39 22 132 31 170 3 14 7 39 10 55 13 75 91
408 105 445 5 14 11 37 14 52 2 14 9 36 16 47 6 12 8 26 5 31 -3 6 -2 10 3 10
5 0 9 6 9 13 0 21 119 372 143 422 5 11 23 56 41 100 17 44 35 86 41 93 6 6 8
12 4 12 -3 0 5 22 19 49 29 55 39 92 26 101 -5 3 -37 30 -71 60 -97 84 -129
111 -205 170 -38 30 -71 58 -73 62 -2 5 -10 8 -18 8 -8 0 -14 4 -14 8 0 4 -13
16 -30 25 -16 10 -35 23 -42 30 -22 21 -228 157 -237 157 -5 0 -11 3 -13 8 -7
16 -410 243 -438 247 -3 1 -34 15 -70 32 -36 17 -98 45 -138 62 l-73 30 -10
-27z"/>
<path d="M10535 11741 c-124 -53 -301 -141 -420 -209 -91 -51 -257 -153 -265
-161 -3 -3 -44 -32 -92 -64 -48 -32 -94 -65 -102 -72 -8 -8 -19 -15 -24 -15
-6 0 -12 -4 -14 -8 -1 -4 -24 -23 -50 -42 -27 -18 -48 -37 -48 -41 0 -4 -8
-10 -18 -13 -9 -3 -31 -18 -48 -33 -17 -16 -50 -44 -74 -63 -43 -35 -67 -55
-133 -117 l-35 -33 29 -55 c16 -30 29 -59 30 -63 0 -4 8 -23 16 -42 29 -70 96
-236 103 -260 5 -14 27 -76 49 -137 22 -62 38 -113 34 -113 -3 0 -1 -6 4 -12
9 -11 21 -46 29 -85 1 -7 11 -41 23 -75 11 -35 23 -74 25 -88 3 -14 5 -25 6
-25 1 0 4 -13 6 -30 3 -16 8 -32 12 -35 4 -3 8 -14 9 -25 0 -11 4 -31 8 -45 3
-14 8 -34 10 -45 3 -11 8 -31 11 -45 3 -14 10 -43 14 -65 4 -22 11 -51 14 -65
7 -32 24 -117 30 -155 3 -16 7 -41 10 -55 6 -27 14 -81 22 -145 2 -22 9 -64
15 -93 10 -50 11 -52 27 -34 9 11 39 37 67 58 27 21 56 44 63 51 7 7 33 27 57
44 25 18 45 36 45 40 0 4 8 10 18 13 10 4 27 14 38 24 10 9 48 38 84 64 36 26
70 51 76 56 5 5 21 15 35 22 13 7 26 16 29 20 3 4 55 39 115 78 61 40 115 75
120 80 6 4 37 23 70 42 33 19 69 40 80 47 11 7 39 22 63 35 23 12 42 26 42 30
0 4 9 8 19 8 11 0 22 4 26 9 3 6 18 16 33 24 15 7 65 33 112 57 47 24 88 47
91 52 3 4 4 30 3 56 -2 26 -5 97 -8 157 -3 61 -9 135 -12 165 -3 30 -6 70 -7
88 0 17 -4 32 -9 32 -5 0 -6 4 -3 10 3 5 1 45 -5 88 -6 43 -12 93 -15 112 -3
19 -7 46 -10 60 -3 14 -8 41 -11 60 -5 35 -20 118 -29 155 -2 11 -11 52 -20
90 -9 39 -18 79 -20 89 -3 10 -16 60 -31 110 -14 50 -27 98 -29 106 -7 31 -56
176 -66 194 -6 10 -13 28 -15 40 -3 19 -90 235 -97 242 -1 1 -52 -19 -112 -45z"/>
<path d="M2255 10162 c-3 -3 -26 -5 -50 -3 -31 1 -45 -2 -46 -11 -3 -56 7
-331 16 -410 7 -65 16 -147 21 -183 2 -16 6 -51 9 -77 3 -26 13 -84 21 -130 8
-46 18 -96 20 -113 3 -16 12 -59 20 -95 8 -36 17 -78 20 -93 3 -16 19 -77 36
-135 16 -59 31 -115 33 -124 6 -27 103 -315 131 -388 24 -63 48 -122 84 -205
10 -22 28 -65 41 -95 35 -84 218 -443 236 -462 9 -10 13 -18 10 -18 -3 0 16
-36 43 -80 28 -44 50 -84 50 -90 0 -5 5 -10 10 -10 6 0 10 -7 10 -15 0 -8 5
-15 10 -15 6 0 10 -4 10 -10 0 -12 141 -224 152 -228 4 -2 8 -8 8 -13 0 -7 79
-120 122 -174 5 -5 31 -39 58 -75 76 -98 93 -119 115 -144 11 -13 40 -47 64
-76 66 -77 100 -116 154 -172 26 -28 47 -55 47 -61 0 -6 3 -8 6 -5 3 4 22 -12
42 -35 73 -81 358 -353 386 -369 8 -5 33 -27 55 -50 23 -23 41 -38 41 -35 0 4
14 -6 31 -22 48 -46 287 -231 299 -231 5 0 10 -4 10 -8 0 -4 15 -16 33 -27 17
-10 36 -24 40 -32 4 -7 15 -13 22 -13 8 0 15 -4 15 -8 0 -5 12 -15 28 -23 15
-8 29 -16 32 -19 10 -12 150 -100 275 -174 72 -43 137 -82 145 -87 8 -4 48
-25 88 -46 39 -20 72 -41 72 -45 0 -4 5 -8 12 -8 6 0 61 -24 122 -54 124 -60
222 -106 229 -106 2 0 26 -10 53 -22 27 -12 51 -23 54 -23 3 -1 22 -9 44 -18
21 -9 42 -17 46 -17 4 0 33 -11 64 -25 31 -14 58 -25 61 -25 3 0 6 0 8 0 1 0
34 -12 72 -25 39 -14 75 -27 80 -28 6 -2 36 -11 67 -20 32 -10 60 -18 63 -18
3 0 23 -6 46 -14 23 -9 51 -17 63 -20 12 -2 66 -15 120 -29 55 -14 122 -30
150 -35 28 -6 62 -13 76 -16 38 -8 130 -24 175 -30 22 -4 51 -9 65 -11 14 -3
43 -7 64 -9 22 -2 46 -7 53 -9 18 -7 14 -1 -74 117 -40 54 -73 102 -73 107 0
4 -3 10 -8 12 -11 4 -112 155 -112 167 0 5 -4 11 -8 13 -10 4 -174 279 -199
333 -10 22 -20 42 -23 45 -7 6 -110 216 -145 295 -15 33 -33 74 -40 90 -26 57
-48 110 -50 121 -2 5 -14 36 -29 67 -14 32 -26 66 -26 75 0 10 -4 22 -8 28 -8
8 -55 130 -62 159 -1 6 -4 15 -6 20 -29 85 -71 224 -75 250 -1 6 -10 33 -19
60 -9 28 -17 52 -18 55 0 3 -3 17 -7 31 -3 14 -8 34 -10 45 -2 10 -4 19 -5 19
-1 0 -3 7 -5 15 -2 8 -6 26 -9 40 -16 70 -25 110 -36 165 -7 33 -14 67 -17 75
-3 8 -7 24 -8 35 -1 17 -16 110 -20 125 -5 19 -16 81 -20 110 -2 19 -6 44 -8
55 -3 11 -8 47 -11 80 -4 33 -9 74 -11 90 -5 39 -15 137 -20 200 -3 28 -7 79
-11 115 -13 139 -21 711 -10 729 8 12 -157 162 -319 291 -31 25 -74 59 -94 75
-55 44 -95 74 -170 127 -36 26 -70 51 -76 55 -62 50 -465 301 -550 343 -16 8
-42 22 -57 32 -14 10 -33 18 -41 18 -9 0 -17 4 -19 9 -2 7 -232 123 -248 126
-3 0 -25 10 -50 22 -66 31 -125 56 -220 92 -47 18 -94 37 -105 41 -26 11 -58
22 -70 26 -5 2 -48 16 -95 32 -104 36 -319 101 -361 108 -8 2 -42 11 -75 19
-32 9 -70 18 -84 21 -14 2 -45 9 -70 14 -25 5 -58 12 -75 15 -16 3 -39 8 -50
10 -68 13 -180 31 -255 40 -152 17 -229 24 -359 30 -57 3 -106 7 -110 9 -3 2
-15 0 -25 -4 -11 -3 -37 -4 -58 0 -20 4 -40 5 -43 2z"/>
<path d="M13356 10163 c-1 -1 -71 -5 -156 -8 -84 -3 -165 -7 -179 -9 -30 -5
-150 -18 -201 -21 -19 -1 -35 -3 -35 -5 0 -1 -13 -4 -30 -6 -46 -7 -168 -26
-190 -30 -11 -2 -33 -7 -50 -9 -16 -3 -38 -8 -48 -11 -11 -3 -29 -8 -40 -9
-23 -4 -58 -12 -67 -15 -3 -1 -8 -2 -11 -2 -3 1 -30 -6 -60 -14 -30 -8 -65
-17 -79 -20 -14 -2 -56 -14 -95 -26 -38 -12 -75 -22 -82 -24 -41 -8 -406 -134
-413 -143 -6 -7 -28 -13 -47 -14 -7 0 -13 -3 -13 -7 0 -3 -24 -14 -52 -25 -29
-10 -91 -36 -138 -58 -47 -21 -105 -48 -130 -59 -25 -11 -48 -26 -52 -32 -4
-6 -8 -7 -8 -3 0 9 -101 -43 -112 -58 -4 -5 -8 -7 -8 -3 0 4 -30 -10 -67 -31
-38 -21 -88 -49 -113 -63 -107 -60 -126 -71 -140 -82 -8 -6 -31 -20 -50 -31
-19 -10 -39 -23 -45 -27 -5 -5 -50 -34 -100 -66 -49 -31 -99 -65 -109 -74 -11
-10 -23 -18 -27 -18 -4 0 -14 -6 -21 -13 -7 -7 -35 -28 -63 -47 -54 -37 -68
-47 -93 -70 -10 -8 -33 -26 -52 -40 -69 -49 -266 -213 -352 -292 -17 -16 -34
-28 -39 -28 -5 0 -9 -6 -9 -13 0 -7 -9 -18 -20 -25 -12 -7 -18 -17 -15 -22 7
-11 7 -458 0 -565 -2 -38 -7 -106 -9 -150 -8 -116 -16 -216 -21 -245 -3 -14
-7 -54 -11 -90 -3 -36 -8 -72 -9 -81 -2 -9 -6 -40 -10 -69 -4 -29 -9 -62 -11
-74 -2 -12 -7 -41 -10 -65 -3 -25 -8 -49 -10 -53 -3 -5 -7 -26 -9 -46 -3 -20
-16 -91 -31 -157 -14 -66 -28 -129 -29 -140 -2 -11 -4 -20 -5 -20 -1 0 -3 -7
-5 -15 -22 -103 -97 -371 -133 -472 -11 -31 -17 -59 -14 -62 3 -3 -1 -6 -8 -6
-7 0 -11 -3 -7 -6 3 -3 -6 -36 -20 -72 -14 -37 -26 -71 -28 -77 -1 -5 -7 -23
-13 -38 -7 -16 -12 -31 -12 -34 0 -3 -6 -19 -14 -36 -8 -18 -31 -72 -52 -122
-20 -49 -54 -128 -76 -173 -21 -46 -38 -88 -38 -93 0 -5 -4 -9 -10 -9 -5 0 -9
-3 -8 -7 3 -10 -93 -200 -161 -317 -28 -49 -51 -90 -51 -92 0 -6 -141 -225
-199 -309 -64 -93 -76 -110 -138 -189 l-46 -58 69 6 c38 4 76 9 85 12 10 3 30
6 45 9 71 9 246 43 317 61 9 2 25 6 35 8 9 2 46 12 82 21 36 9 72 18 80 20 49
11 131 35 148 44 10 5 29 12 43 14 13 2 31 7 39 10 21 8 124 41 130 42 3 0 11
4 17 8 7 5 21 10 30 12 53 10 336 129 543 228 52 25 99 45 104 45 5 0 12 5 15
10 3 6 40 27 81 48 41 20 103 55 138 76 34 21 65 38 67 38 3 0 24 12 48 27 23
15 67 42 97 61 30 19 74 47 97 63 23 16 46 29 51 29 6 0 12 4 14 8 2 5 32 28
68 52 65 44 132 94 158 118 7 6 17 12 21 12 5 0 19 10 33 23 13 12 51 42 84
67 32 24 64 49 70 55 6 5 33 28 60 50 181 149 410 367 594 566 52 56 103 111
113 121 9 10 17 20 17 23 0 3 8 13 18 23 30 32 116 134 132 156 8 11 19 26 25
32 5 6 19 23 30 38 11 16 25 33 30 40 23 25 126 167 186 256 35 52 70 101 77
108 6 7 12 20 12 28 0 8 3 14 8 14 4 0 20 24 36 53 16 28 39 66 52 82 12 17
34 53 48 80 15 28 39 70 53 95 104 185 186 350 248 500 15 36 35 83 44 105 23
53 65 158 67 168 1 4 3 9 4 12 1 3 3 8 5 13 1 4 4 14 8 22 3 8 15 42 27 75 11
33 23 67 27 75 3 8 7 20 7 25 1 6 8 30 16 55 7 25 14 48 16 53 1 4 2 8 4 10 1
1 3 9 5 17 2 8 16 58 30 110 14 52 28 104 30 115 12 50 16 72 21 95 2 14 7 31
10 39 2 8 7 30 10 50 3 20 9 52 14 71 5 19 11 53 14 75 3 22 8 51 10 65 3 14
8 45 10 70 3 25 8 56 10 69 3 13 8 56 11 95 4 39 8 87 10 106 3 19 7 111 10
205 4 93 8 173 11 176 10 17 -30 30 -96 32 -39 1 -73 1 -74 0z"/>
<path d="M13778 8689 c-9 -5 -19 -26 -23 -46 -4 -21 -11 -43 -17 -50 -5 -7 -7
-17 -4 -22 4 -5 2 -12 -4 -16 -5 -3 -10 -12 -10 -20 0 -8 -5 -26 -12 -42 -6
-15 -12 -35 -14 -44 -3 -14 -64 -178 -81 -219 -3 -8 -7 -17 -8 -20 -5 -14 -18
-47 -25 -65 -5 -11 -23 -54 -41 -95 -17 -41 -49 -112 -70 -158 -21 -45 -39
-86 -39 -91 0 -5 -7 -14 -15 -21 -8 -6 -14 -15 -13 -18 2 -7 -72 -162 -82
-172 -6 -6 -19 -30 -56 -101 -16 -30 -34 -60 -40 -67 -7 -6 -16 -21 -19 -32
-7 -23 -139 -236 -163 -263 -19 -21 -11 -30 31 -33 18 -1 58 -3 90 -5 31 -2
57 -6 57 -9 0 -3 21 -5 48 -6 52 0 160 -10 207 -18 46 -8 106 -17 145 -21 19
-2 35 -4 35 -5 0 -1 16 -4 35 -7 19 -2 89 -15 155 -29 66 -13 129 -26 140 -28
11 -3 31 -7 45 -10 14 -3 48 -10 75 -17 28 -6 61 -15 75 -19 14 -5 36 -12 50
-14 14 -3 40 -9 58 -15 18 -5 33 -10 35 -10 2 0 7 -1 66 -20 19 -6 37 -11 42
-11 4 0 31 30 61 68 29 37 58 73 65 80 7 7 13 17 13 21 0 4 8 16 18 27 22 24
92 122 92 129 0 5 25 37 48 61 7 7 12 15 10 16 -1 2 11 23 28 48 29 42 100
158 147 239 36 62 78 142 134 256 30 61 58 117 63 126 19 36 95 221 100 244 1
6 7 19 13 30 6 11 12 23 13 28 1 4 3 9 4 12 1 3 3 8 5 13 1 4 4 14 7 22 37 99
49 142 42 149 -5 4 -43 18 -84 31 -41 13 -79 26 -85 29 -5 3 -14 6 -20 8 -46
10 -56 12 -63 17 -5 3 -19 7 -33 10 -13 3 -85 22 -159 41 -74 19 -147 35 -161
35 -14 0 -29 3 -33 7 -3 4 -14 8 -24 9 -16 3 -50 8 -132 20 -19 3 -46 7 -60
10 -25 5 -44 8 -135 18 -27 4 -68 9 -90 12 -67 8 -124 13 -265 19 -74 3 -140
8 -146 10 -5 1 -17 -1 -26 -6z"/>
<path d="M1767 8684 c-1 -1 -40 -5 -87 -9 -47 -3 -97 -8 -113 -9 -15 -2 -55
-7 -90 -11 -34 -4 -71 -9 -82 -12 -11 -2 -40 -6 -65 -8 -25 -3 -67 -9 -95 -15
-27 -5 -61 -12 -75 -14 -161 -29 -541 -130 -593 -158 -12 -6 -22 -10 -22 -9 0
1 -15 -3 -33 -10 -17 -6 -32 -14 -32 -17 0 -6 23 -74 40 -117 41 -106 65 -170
65 -175 1 -3 11 -27 23 -54 12 -27 22 -50 22 -52 0 -16 168 -356 206 -416 13
-21 24 -44 24 -52 0 -8 3 -16 8 -18 8 -3 72 -101 72 -111 0 -3 11 -23 25 -44
14 -21 30 -45 35 -53 5 -8 28 -41 50 -73 22 -32 40 -62 40 -67 0 -4 4 -10 8
-12 4 -1 32 -38 62 -80 29 -43 58 -78 62 -78 5 0 6 -4 3 -10 -3 -5 -2 -10 2
-10 5 0 26 -25 48 -55 22 -30 43 -55 48 -55 4 0 7 -7 7 -15 0 -20 5 -19 107
11 49 14 95 27 103 29 8 2 62 15 120 30 58 14 114 28 125 29 24 4 72 14 103
21 52 12 68 15 107 21 22 3 45 7 50 8 6 2 33 6 60 10 50 8 75 12 118 20 12 3
49 7 82 10 33 3 71 8 85 10 39 7 185 21 308 30 23 2 45 6 48 9 5 5 -30 64 -46
77 -4 3 -9 12 -13 20 -4 8 -17 31 -29 51 -13 20 -47 79 -77 130 -30 52 -63
106 -73 121 -10 14 -18 33 -18 42 0 9 -3 16 -7 16 -5 0 -21 28 -38 63 -16 34
-36 69 -43 79 -7 9 -15 22 -16 30 -2 7 -24 58 -50 113 -96 200 -109 230 -109
243 0 6 -4 12 -9 12 -4 0 -8 6 -8 13 0 8 -18 58 -41 113 -22 54 -42 106 -44
114 -3 8 -16 49 -30 90 -26 75 -32 91 -33 100 -1 3 -12 37 -26 77 -13 39 -21
74 -18 78 6 6 -245 4 -251 -1z"/>
<path d="M2774 6741 c-2 -2 -32 -5 -66 -7 -82 -3 -191 -14 -197 -19 -2 -3 -10
0 -18 6 -7 6 -13 7 -13 2 0 -5 -6 -10 -12 -11 -80 -6 -138 -13 -228 -28 -19
-3 -51 -8 -70 -10 -19 -2 -71 -12 -115 -21 -44 -8 -89 -17 -100 -19 -11 -1
-40 -7 -65 -14 -25 -6 -56 -13 -70 -14 -14 -2 -61 -14 -105 -26 -44 -11 -91
-23 -105 -26 -30 -6 -156 -43 -185 -55 -18 -7 -61 -21 -75 -24 -34 -8 -258
-87 -295 -105 -11 -5 -49 -21 -85 -35 -81 -33 -112 -47 -225 -101 -50 -24 -96
-44 -103 -44 -7 0 -12 -4 -12 -8 0 -5 -19 -16 -42 -27 -24 -10 -45 -21 -48
-24 -3 -3 -36 -22 -75 -41 -38 -19 -78 -43 -89 -52 -11 -10 -24 -18 -28 -18
-5 0 -21 -8 -36 -19 -15 -10 -73 -49 -129 -85 -57 -37 -109 -74 -117 -82 -8
-8 -19 -14 -24 -14 -5 0 -15 -6 -21 -13 -8 -10 -6 -19 9 -35 11 -12 20 -25 20
-29 0 -4 9 -19 20 -33 11 -14 50 -63 85 -110 80 -104 124 -159 147 -182 10
-10 16 -18 14 -18 -17 0 351 -373 464 -470 41 -36 77 -67 80 -70 3 -3 41 -35
85 -70 44 -36 86 -70 93 -77 7 -7 17 -13 20 -13 4 0 18 -10 32 -23 14 -12 48
-38 75 -57 28 -19 52 -38 53 -42 2 -5 9 -8 15 -8 7 -1 28 -14 47 -30 19 -17
40 -30 47 -30 7 0 13 -4 13 -8 0 -7 117 -83 188 -122 15 -8 29 -17 32 -21 5
-5 115 -68 222 -128 32 -17 118 -61 190 -97 73 -35 145 -72 161 -80 15 -8 27
-12 27 -8 0 4 9 -1 21 -12 12 -10 22 -18 23 -16 1 4 7 2 186 -71 185 -75 611
-217 651 -217 8 0 20 -5 27 -12 7 -7 12 -9 12 -6 0 4 15 2 33 -3 36 -11 59
-17 101 -25 16 -2 33 -7 38 -10 5 -3 19 -7 31 -9 12 -1 53 -10 90 -19 37 -9
82 -18 100 -21 40 -5 87 -14 107 -20 14 -4 78 -15 110 -19 17 -3 100 -15 150
-23 19 -3 46 -7 60 -8 14 -2 45 -6 70 -9 43 -5 125 -13 235 -22 284 -23 685
-23 975 1 129 11 155 13 160 15 3 1 8 2 11 2 6 -1 178 22 247 33 76 12 106 17
126 21 11 3 35 7 51 10 60 10 102 19 213 45 26 6 55 12 65 12 9 1 17 5 17 10
0 4 8 7 18 6 9 -1 44 5 77 15 33 10 92 26 130 37 39 11 107 33 152 49 44 16
84 26 87 23 3 -4 6 -2 6 4 0 5 6 10 13 10 11 0 194 68 262 98 99 43 143 63
260 118 72 33 137 66 145 72 8 7 33 21 55 32 73 36 130 68 135 74 3 4 23 16
45 28 22 11 35 22 30 22 -6 1 -19 3 -30 4 -11 1 -42 5 -70 9 -87 11 -181 23
-255 31 -78 9 -124 15 -155 20 -65 11 -92 15 -130 20 -22 3 -51 8 -65 11 -30
7 -68 15 -95 19 -11 2 -32 6 -47 9 -16 3 -38 8 -50 10 -52 11 -234 55 -273 67
-16 5 -77 23 -135 40 -58 17 -112 34 -120 37 -8 3 -19 6 -25 8 -44 11 -367
133 -450 169 -16 8 -60 27 -98 44 -37 16 -70 30 -72 31 -3 0 -30 14 -61 30
-31 17 -62 30 -70 30 -8 0 -14 5 -14 11 0 5 -4 8 -9 5 -5 -4 -11 -3 -13 1 -1
5 -32 23 -68 41 -120 62 -205 107 -210 112 -3 3 -25 16 -50 29 -25 13 -52 30
-61 37 -8 8 -19 14 -22 14 -6 0 -86 50 -237 147 -19 13 -40 27 -47 33 -7 5
-16 10 -22 10 -5 0 -11 4 -13 8 -1 5 -25 23 -53 42 -27 18 -52 37 -55 40 -3 4
-23 19 -46 33 -22 14 -47 31 -55 39 -8 7 -41 33 -74 58 -69 51 -92 69 -114 90
-9 9 -35 29 -56 45 -48 36 -102 83 -124 108 -8 9 -18 17 -22 17 -19 0 -478
452 -589 579 -30 35 -59 69 -65 75 -23 25 -122 145 -150 180 -16 22 -40 51
-52 65 -12 14 -31 37 -42 51 -18 24 -24 25 -131 25 -61 0 -113 -2 -116 -4z"/>
<path d="M12643 6701 c-21 -25 -40 -48 -43 -51 -3 -3 -20 -25 -39 -50 -19 -25
-41 -52 -48 -60 -7 -8 -26 -31 -42 -50 -126 -150 -195 -224 -392 -420 -201
-200 -295 -290 -304 -290 -3 0 -20 -15 -40 -32 -19 -18 -40 -37 -47 -43 -8 -5
-32 -26 -54 -45 -22 -19 -57 -48 -78 -65 -21 -16 -53 -42 -71 -57 -18 -16 -37
-28 -43 -28 -6 0 -12 -4 -14 -8 -1 -5 -41 -37 -88 -71 -47 -34 -92 -68 -100
-74 -49 -37 -110 -77 -118 -77 -6 0 -12 -4 -14 -9 -3 -7 -119 -86 -173 -117
-11 -6 -50 -30 -87 -53 -37 -22 -72 -41 -77 -41 -5 0 -11 -4 -13 -8 -3 -9
-206 -122 -218 -122 -4 0 -19 -9 -33 -20 -15 -12 -29 -21 -32 -20 -3 0 -62
-27 -133 -61 -70 -34 -147 -70 -172 -81 -25 -10 -58 -25 -75 -33 -59 -26 -231
-93 -270 -105 -22 -7 -44 -16 -50 -20 -5 -4 -23 -11 -40 -15 -34 -10 -35 -10
-55 -18 -15 -5 -86 -28 -105 -34 -5 -1 -41 -12 -80 -24 -67 -20 -164 -47 -195
-55 -8 -2 -44 -11 -80 -19 -36 -9 -69 -18 -75 -19 -26 -6 -123 -26 -145 -30
-14 -3 -25 -5 -25 -6 0 -2 -21 -6 -100 -19 -38 -6 -81 -13 -95 -15 -75 -13
-195 -29 -315 -41 -27 -2 -59 -7 -70 -9 -11 -2 -56 -7 -100 -11 -44 -4 -87
-11 -95 -16 -9 -5 -10 -9 -3 -9 6 0 42 -18 80 -41 89 -54 91 -54 143 -80 25
-13 48 -27 52 -33 4 -6 8 -7 8 -2 0 5 9 1 19 -8 11 -10 25 -18 33 -19 7 -2 35
-15 62 -30 27 -15 52 -27 55 -27 4 0 36 -14 72 -31 114 -56 518 -210 589 -224
8 -2 16 -4 18 -5 1 -2 7 -4 12 -5 6 -1 11 -3 13 -5 1 -1 9 -3 17 -5 25 -4 174
-46 190 -52 17 -7 24 -9 65 -16 17 -4 71 -16 120 -27 50 -12 105 -23 124 -26
18 -2 36 -6 40 -8 3 -3 27 -7 51 -11 25 -3 68 -10 95 -15 28 -5 70 -12 95 -15
25 -3 56 -7 70 -10 33 -6 181 -22 280 -30 184 -14 280 -18 490 -18 194 1 425
8 425 13 0 1 29 3 65 5 36 2 88 6 115 9 28 3 73 8 102 11 28 2 64 7 80 9 15 3
51 8 78 12 28 3 59 8 70 10 10 2 37 6 60 9 46 7 79 13 115 20 14 3 50 10 80
16 30 5 65 12 78 15 12 2 32 6 45 8 12 2 72 16 132 31 61 15 117 28 125 30 8
2 27 8 43 14 15 6 27 8 27 5 0 -2 8 0 18 5 11 6 32 13 48 16 39 8 37 7 134 38
47 14 88 27 92 27 4 0 24 8 45 16 20 9 44 18 52 20 15 3 140 48 171 61 8 3 17
7 20 7 9 2 141 57 198 82 29 13 54 24 57 24 2 0 43 18 90 40 47 22 90 40 95
40 4 0 10 3 12 8 2 4 44 27 93 50 114 55 335 179 443 249 45 29 87 53 92 53 4
0 10 3 12 8 2 4 30 25 63 46 56 37 259 185 301 219 11 9 49 41 87 71 37 30 73
61 81 68 7 7 37 33 67 58 66 56 368 358 429 430 25 29 50 58 56 64 8 9 85 107
147 186 26 34 66 88 99 136 35 50 36 52 17 68 -11 9 -23 16 -28 16 -5 0 -11 4
-13 9 -3 9 -208 144 -268 177 -19 10 -36 22 -38 27 -2 4 -10 7 -18 7 -8 0 -14
4 -14 8 0 4 -12 13 -27 19 -16 6 -62 30 -103 53 -91 51 -129 71 -132 70 -2 0
-48 21 -103 48 -93 45 -365 158 -430 178 -5 2 -44 15 -85 30 -133 47 -490 147
-490 138 0 -3 -8 0 -17 5 -10 5 -35 12 -57 15 -21 4 -41 8 -45 10 -3 2 -26 7
-51 10 -25 3 -60 10 -78 15 -18 5 -35 10 -37 10 -3 -1 -23 2 -45 6 -48 8 -78
12 -145 21 -27 3 -53 8 -57 10 -3 2 -35 6 -70 9 -35 3 -85 8 -113 11 -103 13
-274 24 -423 29 l-82 2 -37 -46z"/>
</g>
</svg>
